<svg id="svg" version="1.1" xmlns="http://www.w3.org/2000/svg" xmlns:xlink="http://www.w3.org/1999/xlink" width="400" height="140.40816326530611" viewBox="0, 0, 400,140.40816326530611"><g id="svgg"><path id="path0" d="M112.774 0.252 C 112.545 0.371,112.321 0.432,112.277 0.388 C 112.181 0.292,110.274 1.196,110.194 1.375 C 110.164 1.444,110.045 1.500,109.929 1.500 C 109.578 1.500,106.630 4.140,106.755 4.342 C 106.793 4.402,106.638 4.626,106.412 4.838 C 106.185 5.051,106.000 5.313,106.000 5.421 C 106.000 5.529,105.827 5.947,105.616 6.350 C 104.796 7.912,104.431 11.960,104.969 13.517 C 105.083 13.848,105.204 14.263,105.239 14.442 C 105.273 14.620,105.532 15.174,105.814 15.674 C 106.095 16.174,106.450 16.808,106.602 17.083 C 106.940 17.694,108.817 19.548,109.453 19.900 C 111.095 20.806,112.404 21.368,113.107 21.468 C 114.177 21.620,118.058 21.581,118.446 21.414 C 118.613 21.342,118.883 21.257,119.047 21.225 C 120.564 20.929,123.868 18.391,124.602 16.960 C 124.755 16.661,124.926 16.379,124.982 16.333 C 125.142 16.201,125.850 14.839,125.920 14.530 C 126.390 12.428,126.494 11.729,126.495 10.667 C 126.496 9.238,126.022 7.096,125.513 6.234 C 125.322 5.911,125.167 5.568,125.167 5.472 C 125.167 5.143,123.161 2.939,121.891 1.873 C 120.045 0.322,114.529 -0.659,112.774 0.252 M20.167 31.594 C 19.479 31.722,18.729 31.862,18.500 31.906 C 17.576 32.084,15.704 32.659,14.961 32.992 C 14.527 33.187,14.115 33.349,14.045 33.352 C 13.974 33.355,13.804 33.452,13.667 33.568 C 13.529 33.684,13.154 33.881,12.833 34.007 C 12.512 34.133,12.151 34.333,12.030 34.451 C 11.909 34.570,11.716 34.667,11.601 34.667 C 11.487 34.667,11.090 34.927,10.719 35.244 C 10.348 35.562,9.998 35.776,9.943 35.720 C 9.887 35.665,9.794 35.742,9.736 35.893 C 9.678 36.043,9.561 36.167,9.476 36.167 C 9.156 36.167,5.325 39.916,5.012 40.536 C 4.886 40.785,4.701 40.942,4.600 40.884 C 4.499 40.827,4.474 40.843,4.544 40.920 C 4.614 40.997,4.475 41.265,4.236 41.515 C 3.997 41.764,3.797 42.032,3.791 42.109 C 3.786 42.187,3.643 42.438,3.474 42.667 C 3.304 42.896,3.159 43.158,3.152 43.250 C 3.144 43.342,3.077 43.492,3.002 43.583 C 2.726 43.921,1.527 46.305,1.598 46.376 C 1.638 46.416,1.480 46.880,1.247 47.407 C 1.014 47.935,0.793 48.565,0.757 48.808 C 0.721 49.051,0.539 49.850,0.353 50.583 C -0.127 52.471,-0.119 98.691,0.361 99.623 C 0.514 99.920,0.689 100.389,0.750 100.665 C 0.810 100.941,0.917 101.167,0.988 101.167 C 1.058 101.167,1.251 101.467,1.417 101.833 C 1.582 102.200,1.783 102.500,1.862 102.500 C 1.942 102.500,2.093 102.688,2.197 102.917 C 2.301 103.146,2.482 103.333,2.599 103.333 C 2.715 103.333,2.855 103.472,2.909 103.641 C 2.962 103.811,3.174 104.037,3.378 104.145 C 3.762 104.347,4.757 105.026,5.126 105.338 C 6.271 106.306,10.966 106.678,13.006 105.963 C 14.026 105.605,15.848 104.580,15.972 104.295 C 16.003 104.224,16.097 104.167,16.181 104.167 C 16.265 104.167,16.633 103.867,17.000 103.500 C 17.367 103.133,17.633 102.833,17.593 102.833 C 17.552 102.833,17.738 102.594,18.005 102.301 C 18.272 102.008,18.460 101.738,18.422 101.699 C 18.383 101.661,18.544 101.326,18.778 100.955 C 19.012 100.584,19.241 100.049,19.285 99.765 C 19.330 99.482,19.453 99.100,19.558 98.917 C 19.761 98.564,19.792 95.755,19.877 70.417 L 19.921 57.250 20.330 56.333 C 22.674 51.090,29.072 49.732,32.833 53.680 C 33.929 54.829,34.212 55.167,34.083 55.167 C 34.030 55.167,34.169 55.485,34.392 55.875 C 34.620 56.273,34.850 57.019,34.916 57.577 C 34.980 58.124,35.062 58.724,35.098 58.911 C 35.134 59.097,35.167 67.950,35.170 78.583 C 35.177 99.656,35.138 98.812,36.200 100.917 C 37.199 102.897,40.073 105.667,41.129 105.667 C 41.213 105.667,41.537 105.798,41.849 105.958 C 42.646 106.368,46.804 106.471,47.859 106.108 C 49.067 105.692,49.727 105.381,50.208 105.003 C 50.460 104.805,50.667 104.685,50.667 104.737 C 50.667 104.879,51.497 104.171,52.249 103.388 C 53.036 102.570,53.333 102.214,53.333 102.092 C 53.333 102.044,53.465 101.851,53.625 101.663 C 53.785 101.476,53.921 101.269,53.926 101.203 C 53.931 101.137,54.094 100.746,54.288 100.333 C 54.988 98.846,54.997 98.565,55.006 78.206 C 55.017 55.515,54.958 56.283,56.846 54.269 C 57.113 53.983,57.332 53.695,57.333 53.627 C 57.333 53.501,58.217 52.882,59.383 52.191 C 60.119 51.755,62.447 51.285,63.239 51.412 C 63.520 51.457,64.019 51.530,64.347 51.575 C 66.589 51.880,68.961 54.013,69.989 56.651 L 70.417 57.750 70.440 69.812 C 70.463 82.023,70.489 82.824,70.931 84.545 C 71.066 85.073,71.221 85.823,71.274 86.211 C 71.328 86.599,71.472 87.113,71.595 87.353 C 71.718 87.592,71.853 87.976,71.894 88.206 C 71.936 88.435,72.063 88.802,72.178 89.020 C 72.601 89.829,72.667 90.003,72.667 90.317 C 72.667 90.494,72.723 90.664,72.792 90.694 C 72.973 90.775,73.500 91.819,73.500 92.097 C 73.500 92.227,73.575 92.333,73.667 92.333 C 73.758 92.333,73.833 92.440,73.833 92.569 C 73.833 92.699,73.912 92.832,74.009 92.864 C 74.106 92.896,74.203 93.034,74.225 93.170 C 74.269 93.440,75.004 94.637,75.360 95.020 C 75.483 95.151,75.761 95.509,75.977 95.815 C 76.194 96.121,76.494 96.521,76.644 96.704 C 77.167 97.342,79.774 99.921,80.483 100.500 C 80.875 100.821,81.297 101.177,81.420 101.292 C 81.542 101.406,81.712 101.500,81.796 101.500 C 81.880 101.500,82.084 101.650,82.250 101.833 C 82.416 102.017,82.646 102.167,82.762 102.167 C 82.878 102.167,82.997 102.234,83.028 102.316 C 83.127 102.581,86.275 104.225,87.917 104.869 C 92.056 106.492,100.300 107.232,103.417 106.261 C 103.508 106.232,103.658 106.190,103.750 106.167 C 103.842 106.144,104.254 106.023,104.667 105.898 C 105.079 105.773,105.553 105.669,105.719 105.668 C 105.885 105.667,106.431 105.479,106.932 105.250 C 107.433 105.021,107.991 104.833,108.172 104.833 C 108.352 104.833,108.500 104.758,108.500 104.667 C 108.500 104.575,108.621 104.500,108.768 104.500 C 109.069 104.500,111.052 103.490,111.139 103.293 C 111.169 103.224,111.282 103.166,111.389 103.165 C 111.496 103.164,112.055 102.864,112.632 102.498 C 113.208 102.133,113.752 101.833,113.840 101.833 C 113.928 101.833,114.000 101.771,114.000 101.695 C 114.000 101.619,114.324 101.324,114.721 101.039 C 116.223 99.960,117.963 98.308,119.136 96.848 C 119.474 96.428,119.825 95.999,119.917 95.896 C 120.008 95.792,120.177 95.567,120.291 95.395 C 120.405 95.224,120.761 94.709,121.082 94.251 C 121.404 93.792,121.667 93.324,121.667 93.209 C 121.667 93.094,121.734 93.000,121.815 93.000 C 121.897 93.000,122.091 92.681,122.247 92.292 C 122.403 91.903,122.600 91.541,122.686 91.488 C 122.771 91.435,122.870 91.244,122.905 91.063 C 122.939 90.882,123.125 90.454,123.317 90.112 C 123.509 89.770,123.667 89.411,123.667 89.315 C 123.667 89.219,123.843 88.677,124.058 88.112 C 124.468 87.037,125.005 85.003,125.104 84.148 C 125.136 83.874,125.237 83.185,125.329 82.616 C 125.626 80.780,125.540 43.646,125.237 42.361 C 124.956 41.176,124.487 40.000,124.294 40.000 C 124.224 40.000,124.167 39.896,124.167 39.768 C 124.167 39.641,123.905 39.247,123.586 38.893 C 123.267 38.540,122.962 38.119,122.908 37.958 C 122.855 37.798,122.722 37.665,122.614 37.664 C 122.505 37.662,122.246 37.480,122.036 37.260 C 121.527 36.723,119.922 35.667,119.457 35.564 C 119.002 35.462,118.824 35.411,118.500 35.290 C 117.028 34.737,114.614 34.701,112.833 35.204 C 112.146 35.398,111.489 35.629,111.373 35.717 C 111.258 35.805,110.873 36.036,110.519 36.230 C 108.543 37.313,106.414 39.941,106.075 41.715 C 106.036 41.917,105.926 42.458,105.830 42.917 C 105.718 43.459,105.644 50.130,105.620 62.000 C 105.597 73.456,105.523 80.343,105.421 80.500 C 105.332 80.637,105.240 80.874,105.217 81.027 C 105.157 81.411,104.385 82.839,103.992 83.293 C 103.813 83.500,103.667 83.705,103.667 83.749 C 103.667 83.880,102.428 84.991,102.276 84.995 C 102.199 84.998,101.954 85.143,101.732 85.318 C 101.291 85.664,99.436 86.276,98.458 86.397 C 97.026 86.575,94.728 85.830,93.417 84.762 C 91.970 83.585,91.801 83.425,91.649 83.083 C 91.568 82.900,91.437 82.637,91.360 82.500 C 91.000 81.863,90.778 81.399,90.608 80.928 C 90.480 80.576,90.394 76.020,90.331 66.333 C 90.281 58.587,90.192 52.100,90.134 51.917 C 90.077 51.733,89.873 50.824,89.682 49.896 C 89.492 48.969,89.223 47.994,89.086 47.730 C 88.948 47.466,88.835 47.111,88.834 46.942 C 88.833 46.404,86.498 42.027,86.125 41.861 C 86.056 41.831,86.000 41.697,86.000 41.564 C 86.000 41.431,85.888 41.280,85.750 41.227 C 85.612 41.174,85.500 41.027,85.500 40.899 C 85.500 40.771,85.425 40.667,85.333 40.667 C 85.242 40.667,85.167 40.581,85.167 40.476 C 85.167 40.318,83.438 38.420,82.704 37.771 C 82.586 37.668,82.236 37.347,81.926 37.058 C 81.224 36.405,79.227 35.000,79.001 35.000 C 78.909 35.000,78.833 34.944,78.833 34.875 C 78.833 34.764,77.870 34.220,77.167 33.933 C 77.029 33.876,76.664 33.678,76.355 33.491 C 76.046 33.304,75.753 33.191,75.704 33.240 C 75.656 33.289,75.364 33.173,75.056 32.983 C 74.748 32.793,74.253 32.599,73.956 32.553 C 73.659 32.507,73.342 32.411,73.250 32.341 C 73.046 32.184,72.281 31.987,71.500 31.890 C 71.179 31.850,70.365 31.709,69.691 31.575 C 67.165 31.077,62.690 31.375,59.583 32.249 C 59.033 32.403,58.508 32.547,58.417 32.567 C 58.325 32.588,57.860 32.777,57.382 32.986 C 56.905 33.196,56.493 33.347,56.466 33.322 C 56.439 33.297,56.099 33.477,55.712 33.722 C 55.324 33.966,54.902 34.167,54.774 34.167 C 54.646 34.167,54.447 34.279,54.333 34.417 C 54.219 34.554,54.028 34.667,53.908 34.667 C 53.788 34.667,53.591 34.760,53.470 34.875 C 53.349 34.990,52.950 35.304,52.583 35.575 C 52.217 35.845,51.862 36.145,51.794 36.241 C 51.722 36.344,51.671 36.349,51.669 36.254 C 51.668 36.164,51.498 36.251,51.292 36.447 C 50.363 37.331,49.833 37.803,49.833 37.745 C 49.833 37.666,48.984 38.557,47.917 39.756 C 46.181 41.706,44.498 41.881,42.792 40.288 C 42.448 39.967,42.167 39.634,42.167 39.547 C 42.167 39.461,41.979 39.289,41.750 39.167 C 41.521 39.044,41.333 38.891,41.333 38.826 C 41.333 38.557,37.905 35.504,37.599 35.501 C 37.516 35.501,37.197 35.309,36.891 35.075 C 36.584 34.841,36.332 34.710,36.331 34.783 C 36.329 34.857,36.273 34.842,36.206 34.750 C 35.829 34.237,32.717 32.830,30.583 32.208 C 27.753 31.384,22.860 31.095,20.167 31.594 M39.750 126.332 C 33.892 127.033,31.921 135.593,36.833 138.996 C 37.154 139.219,37.454 139.445,37.500 139.500 C 38.056 140.165,42.344 140.356,43.474 139.766 C 43.780 139.606,44.070 139.515,44.119 139.563 C 44.487 139.932,44.943 137.582,44.608 137.040 C 44.485 136.841,43.833 136.826,43.833 137.023 C 43.833 137.412,41.016 137.896,40.136 137.657 C 39.741 137.549,39.340 137.449,39.246 137.435 C 37.514 137.165,36.310 133.327,37.280 131.167 C 37.662 130.315,38.469 129.333,38.787 129.333 C 38.904 129.333,39.000 129.273,39.000 129.200 C 39.000 128.746,41.519 128.489,42.447 128.848 C 42.954 129.044,43.243 129.114,44.208 129.273 L 44.833 129.376 44.833 128.206 L 44.833 127.036 44.181 126.775 C 43.677 126.574,40.776 126.078,40.754 126.189 C 40.752 126.202,40.300 126.266,39.750 126.332 M82.833 126.347 C 81.331 126.543,79.167 127.719,79.167 128.340 C 79.167 128.428,79.073 128.503,78.958 128.506 C 78.385 128.524,77.497 131.492,77.506 133.357 C 77.544 141.207,87.344 143.034,90.092 135.705 C 90.476 134.680,90.407 131.110,89.986 130.202 C 89.785 129.770,89.552 129.263,89.467 129.074 C 89.251 128.596,87.798 127.121,87.500 127.077 C 87.454 127.070,87.079 126.910,86.667 126.721 C 86.254 126.531,85.654 126.367,85.333 126.354 C 85.012 126.342,84.563 126.303,84.333 126.269 C 84.104 126.234,83.429 126.269,82.833 126.347 M163.875 126.288 C 163.394 126.322,162.999 126.403,162.998 126.467 C 162.998 126.531,162.660 126.731,162.248 126.912 C 161.837 127.093,161.500 127.285,161.500 127.339 C 161.500 127.393,161.365 127.583,161.200 127.760 C 160.442 128.576,160.121 130.467,160.563 131.514 C 160.938 132.404,162.268 133.667,162.830 133.667 C 162.974 133.667,163.240 133.763,163.421 133.881 C 163.602 133.998,164.050 134.197,164.416 134.323 C 167.315 135.317,166.619 138.377,163.667 137.617 C 163.529 137.581,163.192 137.497,162.917 137.430 C 162.642 137.363,162.144 137.164,161.811 136.987 C 160.692 136.395,160.500 136.566,160.500 138.160 C 160.500 139.246,160.588 139.364,161.671 139.731 C 165.121 140.899,168.282 139.764,168.835 137.158 C 169.058 136.108,168.959 134.724,168.617 134.111 C 168.280 133.505,167.093 132.500,166.716 132.500 C 166.597 132.500,166.500 132.422,166.500 132.326 C 166.500 132.230,166.406 132.171,166.292 132.194 C 165.944 132.264,163.667 131.197,163.667 130.964 C 163.667 130.881,163.592 130.860,163.500 130.917 C 163.408 130.974,163.258 130.823,163.166 130.583 C 162.576 129.031,164.686 128.099,166.750 129.000 C 168.059 129.571,168.333 129.414,168.333 128.093 C 168.333 127.425,168.253 126.974,168.114 126.858 C 167.671 126.491,165.367 126.181,163.875 126.288 M5.778 126.444 C 5.589 126.633,5.655 128.473,5.855 128.597 C 5.959 128.661,6.670 128.698,7.436 128.680 L 8.829 128.646 8.873 134.281 L 8.917 139.917 10.167 140.010 C 11.810 140.132,11.675 140.628,11.715 134.318 L 11.750 128.750 13.250 128.667 L 14.750 128.583 14.799 127.458 L 14.849 126.333 10.369 126.333 C 7.905 126.333,5.839 126.383,5.778 126.444 M20.938 126.708 C 20.759 127.376,20.819 139.805,21.002 139.918 C 21.094 139.975,22.726 140.022,24.627 140.022 L 28.083 140.023 28.134 138.974 C 28.202 137.554,28.110 137.500,25.635 137.500 L 23.667 137.500 23.667 135.917 L 23.667 134.333 25.898 134.333 L 28.129 134.333 28.106 133.148 L 28.083 131.964 25.875 131.990 L 23.667 132.016 23.667 130.333 L 23.667 128.650 25.736 128.677 C 28.231 128.709,28.167 128.742,28.167 127.407 L 28.167 126.333 24.603 126.333 C 21.048 126.333,21.039 126.334,20.938 126.708 M51.076 126.542 C 51.032 126.657,51.016 129.713,51.040 133.334 L 51.083 139.917 51.991 139.968 C 53.760 140.069,53.667 140.230,53.667 137.076 L 53.667 134.326 56.792 134.371 L 59.917 134.417 59.962 137.250 L 60.007 140.083 61.160 140.058 C 61.794 140.044,62.392 139.983,62.489 139.923 C 62.610 139.849,62.667 137.681,62.667 133.160 L 62.667 126.506 62.285 126.410 C 62.075 126.358,61.466 126.338,60.931 126.366 L 59.960 126.417 59.938 129.167 L 59.917 131.917 56.792 131.962 L 53.667 132.007 53.667 129.370 C 53.667 127.542,53.605 126.672,53.467 126.533 C 53.193 126.260,51.182 126.267,51.076 126.542 M95.867 126.533 C 95.615 126.785,95.603 128.441,95.852 128.595 C 95.954 128.658,96.704 128.696,97.519 128.680 L 99.000 128.650 99.000 134.208 C 99.000 140.511,98.895 140.112,100.533 140.000 L 101.750 139.917 101.794 134.281 L 101.838 128.646 103.231 128.680 C 103.997 128.698,104.708 128.661,104.812 128.597 C 105.118 128.407,105.054 126.556,104.736 126.434 C 104.207 126.231,96.078 126.322,95.867 126.533 M114.074 127.208 C 113.917 127.690,113.709 128.233,113.611 128.417 C 113.513 128.600,113.418 128.834,113.401 128.937 C 113.383 129.040,113.247 129.381,113.098 129.695 C 112.949 130.010,112.795 130.435,112.755 130.642 C 112.715 130.848,112.560 131.257,112.411 131.550 C 112.262 131.843,112.104 132.233,112.060 132.417 C 112.016 132.600,111.962 132.825,111.939 132.917 C 111.916 133.008,111.732 133.416,111.532 133.823 C 111.331 134.230,111.167 134.659,111.167 134.776 C 111.167 134.894,111.017 135.257,110.833 135.583 C 110.650 135.910,110.498 136.306,110.496 136.463 C 110.494 136.621,110.333 137.087,110.137 137.500 C 109.942 137.912,109.771 138.325,109.757 138.417 C 109.743 138.508,109.642 138.794,109.533 139.053 C 109.174 139.897,109.448 140.091,110.910 140.028 C 111.831 139.988,112.208 139.907,112.260 139.736 C 112.301 139.606,112.382 139.369,112.441 139.208 C 112.500 139.048,112.749 138.354,112.995 137.667 L 113.442 136.417 115.607 136.370 L 117.772 136.324 118.178 137.192 C 118.401 137.669,118.590 138.140,118.599 138.238 C 118.607 138.336,118.770 138.767,118.962 139.194 L 119.309 139.972 120.503 140.028 C 122.317 140.112,122.347 139.847,120.892 136.545 C 120.761 136.249,120.465 135.499,120.233 134.879 C 119.612 133.212,118.344 129.994,118.071 129.391 C 117.940 129.103,117.833 128.759,117.833 128.628 C 117.833 128.496,117.777 128.333,117.708 128.264 C 117.640 128.195,117.577 128.089,117.568 128.028 C 117.560 127.967,117.429 127.638,117.277 127.297 C 117.124 126.956,117.000 126.600,117.000 126.505 C 117.000 126.402,116.476 126.333,115.680 126.333 L 114.360 126.333 114.074 127.208 M127.434 126.597 C 127.264 127.041,127.318 139.752,127.491 139.925 C 127.578 140.012,128.160 140.046,128.783 140.000 L 129.917 139.917 129.963 137.542 C 130.015 134.852,130.008 134.863,131.011 136.016 C 131.776 136.895,132.855 138.066,134.030 139.292 C 134.707 139.998,134.712 140.000,135.924 140.000 C 136.592 140.000,137.248 140.042,137.382 140.093 C 138.145 140.386,137.779 139.289,136.771 138.264 C 136.210 137.693,135.306 136.743,134.764 136.154 C 134.222 135.565,133.366 134.656,132.862 134.135 L 131.946 133.186 132.375 132.635 C 132.611 132.331,133.017 131.850,133.277 131.565 C 133.537 131.279,134.200 130.537,134.750 129.916 C 135.300 129.294,135.862 128.670,136.000 128.530 C 136.137 128.389,136.250 128.215,136.250 128.144 C 136.250 128.073,136.370 127.917,136.517 127.799 C 137.708 126.839,137.415 126.333,135.666 126.333 L 134.373 126.333 133.760 127.082 C 133.423 127.493,132.833 128.161,132.449 128.566 C 131.765 129.287,130.698 130.542,130.467 130.895 C 130.238 131.248,130.183 130.871,130.134 128.621 L 130.083 126.337 128.809 126.335 C 127.801 126.334,127.515 126.388,127.434 126.597 M143.007 131.368 C 143.013 136.260,143.025 136.444,143.397 137.304 C 143.747 138.117,145.114 139.774,145.289 139.599 C 145.330 139.559,145.684 139.696,146.075 139.904 C 146.833 140.307,150.044 140.500,150.257 140.156 C 150.310 140.070,150.487 140.000,150.651 140.000 C 151.466 140.000,152.820 138.887,153.591 137.583 L 154.083 136.750 154.083 131.583 L 154.083 126.417 152.833 126.417 L 151.583 126.417 151.488 131.083 C 151.436 133.650,151.323 135.939,151.238 136.170 C 150.474 138.241,147.517 138.495,146.205 136.602 L 145.750 135.946 145.667 131.181 L 145.583 126.417 144.292 126.368 L 143.000 126.319 143.007 131.368 M85.898 129.171 C 87.077 129.967,87.522 131.089,87.515 133.250 C 87.506 135.808,86.816 136.983,84.987 137.555 C 84.045 137.850,82.667 137.799,82.667 137.469 C 82.667 137.384,82.592 137.360,82.500 137.417 C 82.221 137.589,80.898 136.097,80.634 135.314 C 79.829 132.919,80.989 129.000,82.503 129.000 C 82.674 129.000,82.865 128.917,82.928 128.816 C 83.145 128.464,85.217 128.711,85.898 129.171 M115.769 130.470 C 115.722 130.545,115.868 131.002,116.092 131.485 C 116.316 131.969,116.531 132.538,116.569 132.751 C 116.608 132.964,116.723 133.294,116.826 133.485 C 117.007 133.825,116.979 133.833,115.668 133.833 L 114.325 133.833 114.579 133.342 C 114.719 133.071,114.833 132.733,114.833 132.589 C 114.833 132.446,114.903 132.199,114.988 132.039 C 115.256 131.537,115.447 130.971,115.479 130.583 C 115.491 130.446,115.579 130.333,115.677 130.333 C 115.774 130.333,115.815 130.395,115.769 130.470 " stroke="none" fill="#74dbf4" fill-rule="evenodd"></path><path id="path1" d="M149.417 6.006 C 145.743 6.401,142.335 9.425,141.338 13.175 C 140.834 15.069,140.817 97.204,141.320 99.083 C 141.682 100.438,141.991 101.167,142.203 101.167 C 142.286 101.167,142.313 101.231,142.265 101.310 C 142.179 101.448,142.986 102.605,143.823 103.546 C 146.792 106.883,154.058 107.319,157.166 104.346 C 157.317 104.202,157.698 103.844,158.012 103.551 C 159.108 102.529,159.280 102.262,160.403 99.833 C 160.744 99.096,160.752 98.826,160.843 84.167 C 160.946 67.640,160.877 68.596,162.056 67.232 C 162.382 66.856,163.053 66.350,163.549 66.107 L 164.450 65.667 170.693 65.667 L 176.936 65.667 177.884 66.237 C 180.422 67.766,180.332 67.110,180.337 84.156 C 180.342 99.379,180.322 99.081,181.434 101.139 C 182.435 102.993,184.435 104.923,185.996 105.541 C 186.227 105.633,186.567 105.768,186.750 105.840 C 188.590 106.570,191.920 106.561,193.839 105.821 C 194.570 105.539,195.274 105.202,195.405 105.071 C 195.536 104.940,195.713 104.833,195.799 104.833 C 196.385 104.833,198.775 102.018,199.412 100.577 C 200.196 98.805,200.181 99.757,200.131 55.417 L 200.083 13.250 199.526 12.013 C 198.980 10.803,198.523 10.057,197.979 9.491 C 197.830 9.335,197.680 9.143,197.646 9.063 C 197.558 8.858,195.667 7.284,195.667 7.416 C 195.667 7.475,195.554 7.411,195.417 7.274 C 194.344 6.201,189.396 5.498,187.618 6.166 C 187.324 6.277,186.933 6.424,186.750 6.494 C 183.782 7.622,181.976 9.548,180.650 13.000 C 180.472 13.464,180.406 16.399,180.329 27.333 C 180.276 34.896,180.167 41.271,180.088 41.500 C 179.147 44.229,178.208 44.570,171.440 44.639 C 163.540 44.719,162.536 44.447,161.312 41.899 L 160.920 41.083 160.835 27.167 L 160.750 13.250 160.375 12.437 C 160.169 11.990,160.000 11.554,160.000 11.467 C 160.000 11.297,159.116 9.968,158.683 9.486 C 158.536 9.324,158.333 9.091,158.232 8.970 C 156.339 6.716,153.061 5.614,149.417 6.006 M279.917 6.013 C 276.846 6.458,274.972 10.843,276.795 13.319 C 276.970 13.556,277.474 14.425,277.916 15.250 C 278.358 16.075,278.857 16.949,279.026 17.192 C 279.195 17.436,279.333 17.682,279.333 17.740 C 279.333 17.798,279.659 18.424,280.058 19.131 C 280.456 19.838,281.106 21.017,281.501 21.750 C 281.897 22.483,282.744 24.021,283.384 25.167 C 284.025 26.313,284.771 27.662,285.044 28.167 C 286.074 30.074,286.553 30.919,286.650 31.000 C 286.705 31.046,286.775 31.196,286.805 31.333 C 286.835 31.471,286.954 31.696,287.069 31.833 C 287.185 31.971,287.563 32.646,287.910 33.333 C 288.257 34.021,288.663 34.722,288.812 34.892 C 288.961 35.063,289.058 35.213,289.026 35.226 C 288.914 35.273,289.390 36.167,289.527 36.167 C 289.604 36.167,289.667 36.312,289.667 36.490 C 289.667 36.668,289.744 36.862,289.840 36.920 C 289.935 36.979,290.188 37.377,290.403 37.805 C 290.890 38.776,291.376 39.676,291.992 40.750 C 292.256 41.208,292.582 41.818,292.718 42.105 C 292.855 42.391,293.049 42.677,293.150 42.739 C 293.251 42.802,293.333 42.973,293.333 43.119 C 293.333 43.265,293.505 43.617,293.715 43.901 C 293.926 44.185,294.345 44.904,294.647 45.500 C 294.949 46.096,295.377 46.883,295.597 47.250 C 296.770 49.201,296.659 46.457,296.663 73.531 C 296.667 100.046,296.629 98.949,297.616 100.898 C 298.369 102.385,300.069 104.316,301.151 104.912 C 303.358 106.128,304.160 106.333,306.697 106.333 C 308.923 106.333,311.082 105.788,311.672 105.077 C 311.783 104.943,311.975 104.833,312.098 104.833 C 312.414 104.833,314.833 102.410,314.833 102.094 C 314.833 101.951,314.897 101.833,314.974 101.833 C 315.051 101.833,315.407 101.215,315.765 100.458 L 316.417 99.083 316.500 74.083 L 316.583 49.083 316.987 48.417 C 317.209 48.050,317.688 47.188,318.050 46.500 C 318.413 45.813,318.805 45.137,318.922 45.000 C 319.038 44.862,319.252 44.487,319.397 44.167 C 319.542 43.846,319.725 43.471,319.804 43.333 C 319.883 43.196,320.044 42.902,320.160 42.680 C 320.512 42.009,321.203 40.781,321.527 40.250 C 321.695 39.975,321.987 39.450,322.176 39.083 C 322.655 38.155,323.064 37.431,323.394 36.928 C 323.548 36.693,323.630 36.500,323.576 36.500 C 323.522 36.500,323.644 36.265,323.849 35.978 C 324.185 35.506,324.785 34.433,325.887 32.333 C 326.624 30.929,327.387 29.585,327.777 29.003 C 327.991 28.684,328.168 28.346,328.170 28.253 C 328.172 28.160,328.321 27.896,328.500 27.667 C 328.679 27.438,328.828 27.128,328.830 26.979 C 328.832 26.830,328.929 26.628,329.047 26.530 C 329.164 26.433,329.558 25.768,329.922 25.052 C 330.286 24.336,330.632 23.712,330.690 23.667 C 330.749 23.621,331.113 22.983,331.499 22.250 C 331.885 21.517,332.414 20.542,332.675 20.083 C 332.937 19.625,333.426 18.725,333.763 18.083 C 334.100 17.442,334.431 16.842,334.500 16.750 C 334.568 16.658,334.888 16.096,335.209 15.500 C 335.531 14.904,336.065 13.941,336.397 13.359 C 337.844 10.822,336.907 7.539,334.388 6.319 C 333.715 5.994,333.396 5.978,327.470 5.982 C 319.099 5.988,320.069 5.442,316.328 12.250 C 316.026 12.800,315.613 13.550,315.411 13.917 C 315.210 14.283,314.764 15.108,314.421 15.750 C 314.079 16.392,313.742 16.992,313.674 17.083 C 313.606 17.175,313.230 17.850,312.838 18.583 C 312.446 19.317,311.628 20.805,311.021 21.890 C 309.469 24.665,309.066 25.406,308.316 26.868 C 307.285 28.881,305.901 28.937,305.086 27.000 C 305.028 26.863,304.764 26.375,304.499 25.917 C 304.234 25.458,303.863 24.783,303.674 24.417 C 303.485 24.050,303.156 23.450,302.942 23.083 C 302.728 22.717,302.305 21.967,302.002 21.417 C 301.699 20.867,301.174 19.929,300.834 19.333 C 300.495 18.737,300.103 18.025,299.962 17.750 C 299.737 17.307,297.861 13.905,295.609 9.855 C 295.182 9.087,294.833 8.423,294.833 8.379 C 294.833 8.074,293.664 6.927,292.916 6.499 L 292.014 5.983 286.299 5.950 C 283.155 5.932,280.283 5.960,279.917 6.013 M217.411 26.235 C 216.670 27.366,216.740 35.960,217.508 38.146 C 217.687 38.655,217.833 39.103,217.833 39.140 C 217.833 39.400,218.988 38.894,219.481 38.418 C 221.500 36.469,222.425 35.640,223.576 34.750 C 226.992 32.108,226.992 31.989,223.613 29.616 C 217.781 25.521,217.853 25.561,217.411 26.235 M274.500 25.964 C 274.251 26.049,272.826 26.976,272.667 27.156 C 272.621 27.208,272.461 27.325,272.312 27.417 C 272.162 27.508,271.493 27.958,270.825 28.417 C 270.156 28.875,269.491 29.326,269.346 29.418 C 266.409 31.295,265.881 32.289,267.245 33.378 C 267.557 33.627,268.292 34.194,268.879 34.638 C 269.934 35.437,270.496 35.933,272.643 37.963 C 274.764 39.966,275.179 39.577,275.659 35.135 C 275.962 32.330,275.855 28.785,275.402 26.624 C 275.298 26.123,274.895 25.829,274.500 25.964 M389.000 28.181 C 385.779 28.577,383.989 29.463,379.667 32.800 C 377.957 34.120,376.037 34.385,373.601 33.636 C 372.950 33.435,372.379 33.265,372.333 33.258 C 372.287 33.251,371.800 33.086,371.250 32.892 C 365.863 30.994,355.133 31.469,351.548 33.764 C 351.345 33.894,351.074 34.000,350.947 34.000 C 350.278 34.000,344.763 37.360,343.433 38.579 C 343.080 38.902,342.763 39.167,342.729 39.167 C 342.628 39.167,339.333 42.459,339.333 42.560 C 339.333 42.610,339.165 42.835,338.958 43.060 C 338.752 43.284,338.508 43.570,338.417 43.694 C 338.325 43.818,337.969 44.269,337.625 44.696 C 337.281 45.123,337.000 45.548,337.000 45.639 C 337.000 45.731,336.936 45.831,336.858 45.861 C 336.731 45.911,336.070 46.878,335.566 47.750 C 334.544 49.522,333.333 51.917,333.333 52.167 C 333.333 52.254,333.184 52.571,333.001 52.871 C 332.818 53.171,332.668 53.515,332.667 53.636 C 332.667 53.756,332.479 54.265,332.250 54.766 C 332.021 55.267,331.833 55.763,331.833 55.868 C 331.833 55.973,331.686 56.553,331.505 57.155 C 329.971 62.279,329.418 68.863,330.095 73.950 C 330.239 75.032,330.387 76.204,330.424 76.556 C 330.549 77.738,331.675 81.927,332.269 83.417 C 332.488 83.967,332.667 84.473,332.667 84.542 C 332.667 84.663,334.012 87.612,334.340 88.208 C 334.428 88.369,334.570 88.631,334.656 88.792 C 334.937 89.319,336.696 92.211,336.849 92.399 C 336.932 92.501,337.423 93.146,337.940 93.833 C 339.129 95.413,339.000 95.269,341.032 97.302 C 343.229 99.500,343.203 99.477,344.583 100.480 C 345.225 100.947,345.825 101.388,345.917 101.460 C 346.008 101.533,346.383 101.769,346.750 101.985 C 349.048 103.341,351.761 104.651,352.833 104.921 C 353.063 104.979,353.625 105.163,354.083 105.330 C 359.614 107.347,368.527 106.792,374.467 104.060 C 375.173 103.736,375.900 103.402,376.083 103.319 C 376.267 103.235,376.792 102.947,377.250 102.677 C 377.708 102.407,378.298 102.064,378.560 101.913 C 381.296 100.341,388.167 93.631,388.167 92.531 C 388.167 92.451,388.317 92.249,388.500 92.083 C 388.683 91.917,388.833 91.695,388.833 91.589 C 388.833 91.483,388.975 91.244,389.149 91.058 C 389.322 90.872,389.731 90.225,390.058 89.620 C 390.384 89.015,390.728 88.384,390.823 88.218 C 394.235 82.210,396.078 71.870,395.087 64.300 C 394.951 63.264,394.799 62.079,394.748 61.667 C 394.334 58.287,392.462 52.984,390.219 48.833 C 389.137 46.831,388.917 45.732,388.917 42.333 C 388.917 37.593,390.094 34.870,393.221 32.379 C 394.371 31.463,397.218 30.377,398.876 30.223 C 400.358 30.086,400.318 29.782,398.750 29.258 C 395.657 28.225,391.959 27.817,389.000 28.181 M242.917 31.764 C 241.128 31.895,237.141 32.939,235.189 33.787 C 233.943 34.328,231.392 35.637,230.749 36.064 C 230.383 36.307,229.944 36.598,229.773 36.711 C 227.786 38.024,224.538 40.942,222.750 43.022 C 221.814 44.110,221.500 44.502,221.500 44.583 C 221.500 44.627,221.181 45.096,220.792 45.625 C 219.963 46.750,219.735 47.101,219.467 47.667 C 219.358 47.896,219.177 48.196,219.065 48.333 C 218.575 48.936,216.751 52.841,216.030 54.833 C 215.205 57.112,214.216 61.106,214.090 62.667 C 214.056 63.079,213.947 64.052,213.848 64.829 C 213.629 66.531,213.618 71.629,213.829 73.250 C 213.912 73.892,214.026 74.904,214.082 75.500 C 214.138 76.096,214.326 77.146,214.500 77.833 C 214.674 78.521,214.858 79.323,214.909 79.616 C 214.960 79.910,215.085 80.360,215.186 80.616 C 215.287 80.873,215.467 81.458,215.586 81.917 C 215.705 82.375,216.040 83.350,216.331 84.083 C 216.621 84.817,216.901 85.554,216.953 85.722 C 217.004 85.890,217.373 86.635,217.773 87.376 C 218.173 88.118,218.500 88.783,218.500 88.854 C 218.500 89.307,221.815 94.117,223.073 95.488 C 228.444 101.344,233.679 104.509,240.500 106.026 C 243.121 106.608,249.968 106.609,252.333 106.027 C 254.207 105.566,256.320 104.916,257.250 104.515 C 258.430 104.006,261.237 102.614,261.667 102.325 C 261.896 102.171,262.523 101.754,263.061 101.397 C 263.599 101.041,264.292 100.580,264.603 100.373 C 264.913 100.165,265.167 99.921,265.167 99.831 C 265.167 99.741,265.244 99.667,265.339 99.667 C 265.546 99.667,265.825 99.413,267.997 97.250 C 270.364 94.893,270.333 94.926,270.333 94.702 C 270.333 94.591,270.392 94.500,270.463 94.500 C 270.535 94.500,270.891 94.083,271.255 93.572 C 271.619 93.062,272.085 92.444,272.291 92.197 C 272.498 91.951,272.666 91.681,272.666 91.596 C 272.667 91.512,272.786 91.311,272.932 91.150 C 273.261 90.786,273.502 90.345,274.969 87.417 C 276.070 85.218,276.693 83.732,276.994 82.583 C 277.066 82.308,277.276 81.633,277.461 81.083 C 279.967 73.623,279.619 62.326,276.647 54.603 C 276.474 54.155,276.333 53.718,276.333 53.631 C 276.333 53.383,273.874 48.498,273.331 47.667 C 273.061 47.254,272.770 46.760,272.684 46.568 C 272.598 46.376,272.428 46.113,272.306 45.984 C 272.183 45.855,271.800 45.337,271.454 44.833 C 270.113 42.880,266.716 39.411,264.583 37.815 C 258.208 33.046,251.393 31.142,242.917 31.764 M249.083 50.779 C 249.908 50.924,250.921 51.176,251.333 51.339 C 251.746 51.502,252.196 51.677,252.333 51.729 C 252.610 51.832,253.849 52.569,254.600 53.076 C 255.712 53.826,257.319 55.258,257.918 56.033 C 258.011 56.152,258.348 56.584,258.668 56.992 C 259.274 57.764,259.513 58.133,259.860 58.833 C 259.974 59.063,260.188 59.438,260.335 59.667 C 263.123 64.004,263.186 73.460,260.460 78.250 C 260.356 78.433,260.130 78.846,259.958 79.167 C 259.424 80.166,259.267 80.411,258.672 81.175 C 257.796 82.300,256.260 83.868,255.493 84.422 C 255.116 84.694,254.607 85.073,254.362 85.264 C 254.117 85.455,253.542 85.801,253.083 86.032 C 249.952 87.610,246.598 88.064,243.384 87.346 C 241.983 87.033,241.590 86.905,240.333 86.352 C 239.027 85.777,236.772 84.154,235.667 82.992 C 235.138 82.436,234.000 81.126,234.000 81.073 C 234.000 81.051,233.756 80.670,233.458 80.225 C 232.620 78.975,231.245 76.025,231.100 75.167 C 231.061 74.938,230.866 74.160,230.666 73.438 C 229.441 69.020,230.612 62.395,233.374 58.113 C 233.718 57.580,234.000 57.112,234.000 57.074 C 234.000 56.973,235.467 55.402,236.357 54.552 C 238.438 52.562,240.767 51.354,243.667 50.761 C 245.845 50.316,246.457 50.318,249.083 50.779 M365.699 50.850 C 368.245 51.400,370.395 52.522,372.416 54.354 C 373.736 55.551,375.500 57.606,375.500 57.947 C 375.500 58.007,375.603 58.175,375.728 58.320 C 376.315 58.998,377.400 61.461,378.084 63.667 C 378.813 66.019,378.855 71.684,378.162 74.026 C 377.981 74.636,377.833 75.253,377.833 75.396 C 377.833 75.841,376.206 79.287,375.738 79.833 C 375.620 79.971,375.520 80.141,375.516 80.212 C 375.486 80.721,372.018 84.336,370.833 85.093 C 369.316 86.063,369.138 86.158,367.699 86.769 C 364.566 88.101,359.555 87.893,356.446 86.304 C 355.187 85.660,354.831 85.448,354.658 85.239 C 354.548 85.108,354.385 85.000,354.294 85.000 C 353.718 85.000,350.547 81.726,349.585 80.139 C 348.951 79.093,348.278 77.828,348.091 77.333 C 347.970 77.012,347.756 76.450,347.617 76.083 C 346.076 72.043,346.078 66.184,347.620 62.083 C 347.758 61.717,347.975 61.134,348.102 60.789 C 348.298 60.257,348.710 59.492,349.585 58.031 C 350.691 56.186,354.467 52.500,355.252 52.500 C 355.300 52.500,355.620 52.326,355.962 52.114 C 358.408 50.595,362.227 50.099,365.699 50.850 M186.250 126.323 C 183.358 126.703,181.815 130.012,183.436 132.359 C 183.840 132.944,186.571 134.500,187.194 134.500 C 188.625 134.500,189.198 137.013,187.880 137.514 C 187.036 137.835,184.762 137.452,184.205 136.895 C 184.079 136.769,183.754 136.667,183.481 136.667 L 182.987 136.667 183.035 138.027 L 183.083 139.388 184.242 139.789 C 187.295 140.846,190.319 139.934,191.166 137.702 C 191.876 135.829,191.350 133.812,189.906 132.873 C 189.358 132.517,187.137 131.500,186.908 131.500 C 186.396 131.500,185.457 130.361,185.571 129.879 C 185.847 128.715,187.169 128.372,188.957 129.000 C 189.478 129.183,190.114 129.333,190.369 129.333 L 190.833 129.333 190.833 128.124 C 190.833 126.932,190.826 126.911,190.317 126.686 C 189.873 126.490,187.741 126.150,187.250 126.197 C 187.158 126.206,186.708 126.263,186.250 126.323 M335.750 126.326 C 334.683 126.428,332.881 127.182,332.723 127.592 C 332.673 127.725,332.545 127.835,332.441 127.838 C 332.336 127.840,332.019 128.196,331.736 128.629 C 328.963 132.879,330.421 138.522,334.651 139.914 C 336.456 140.508,339.754 140.083,340.601 139.147 C 340.757 138.974,340.967 138.833,341.067 138.833 C 341.249 138.833,342.167 137.784,342.167 137.576 C 342.167 137.517,342.324 137.247,342.516 136.978 C 343.621 135.426,343.577 131.079,342.437 129.133 C 342.057 128.485,340.738 127.069,340.500 127.055 C 340.454 127.052,340.117 126.899,339.750 126.715 C 339.004 126.340,337.318 126.177,335.750 126.326 M200.913 126.708 C 200.852 126.915,200.465 127.946,200.053 129.000 C 198.883 131.990,198.554 132.841,198.155 133.917 C 197.950 134.467,197.635 135.254,197.453 135.667 C 197.271 136.079,197.061 136.604,196.986 136.833 C 196.911 137.063,196.662 137.767,196.432 138.400 C 195.854 139.994,195.965 140.167,197.575 140.167 L 198.806 140.167 199.087 139.375 C 199.241 138.940,199.510 138.217,199.684 137.769 C 199.858 137.322,200.000 136.853,200.000 136.728 C 200.000 136.546,200.472 136.500,202.333 136.500 C 204.532 136.500,204.667 136.519,204.667 136.823 C 204.667 137.001,204.733 137.188,204.815 137.239 C 204.896 137.289,205.014 137.537,205.076 137.790 C 205.139 138.043,205.382 138.681,205.618 139.208 L 206.046 140.167 207.267 140.167 C 208.792 140.167,209.043 139.898,208.505 138.842 C 208.319 138.478,208.167 138.101,208.167 138.005 C 208.167 137.909,208.020 137.512,207.841 137.123 C 207.662 136.735,207.407 136.117,207.274 135.750 C 206.553 133.756,206.278 133.068,206.146 132.925 C 206.066 132.838,206.000 132.664,206.000 132.539 C 206.000 132.414,205.813 131.902,205.583 131.401 C 205.354 130.900,205.167 130.426,205.167 130.349 C 205.167 130.271,204.990 129.804,204.775 129.312 C 204.559 128.819,204.204 127.948,203.986 127.375 L 203.589 126.333 202.306 126.333 C 201.119 126.333,201.014 126.361,200.913 126.708 M212.386 126.604 C 212.280 126.880,212.443 127.486,212.988 128.833 C 213.786 130.810,214.026 131.438,214.081 131.688 C 214.113 131.837,214.304 132.362,214.504 132.854 C 215.382 135.010,215.500 135.322,215.500 135.491 C 215.500 135.590,215.647 135.988,215.826 136.377 C 216.157 137.095,216.486 137.951,216.977 139.373 L 217.250 140.162 218.625 140.164 C 219.822 140.166,220.001 140.129,220.006 139.875 C 220.009 139.715,220.156 139.283,220.333 138.917 C 220.510 138.550,220.658 138.158,220.661 138.045 C 220.664 137.933,220.846 137.445,221.066 136.962 C 221.285 136.479,221.629 135.633,221.830 135.083 C 222.032 134.533,222.377 133.661,222.598 133.146 C 222.819 132.630,223.000 132.101,223.000 131.971 C 223.000 131.840,223.066 131.662,223.146 131.575 C 223.227 131.488,223.460 130.967,223.664 130.417 C 223.868 129.867,224.224 128.929,224.454 128.333 C 225.176 126.464,225.158 126.425,223.542 126.368 C 222.632 126.336,222.167 126.381,222.167 126.501 C 222.167 126.601,222.017 126.993,221.833 127.373 C 221.650 127.752,221.500 128.159,221.500 128.277 C 221.500 128.395,221.359 128.812,221.188 129.204 C 221.016 129.596,220.782 130.179,220.669 130.500 C 220.555 130.821,220.277 131.571,220.050 132.167 C 219.824 132.762,219.540 133.550,219.419 133.917 C 218.934 135.382,218.552 136.060,218.450 135.636 C 218.398 135.424,218.135 134.650,217.865 133.917 C 217.594 133.183,217.280 132.321,217.166 132.000 C 217.052 131.679,216.818 131.096,216.646 130.704 C 216.474 130.312,216.333 129.883,216.333 129.750 C 216.333 129.618,216.158 129.114,215.945 128.630 C 215.731 128.146,215.456 127.431,215.335 127.042 L 215.113 126.333 213.801 126.333 C 212.744 126.333,212.469 126.386,212.386 126.604 M230.114 126.441 C 229.898 126.658,229.980 139.747,230.200 139.967 C 230.482 140.249,236.851 140.249,237.133 139.967 C 237.393 139.707,237.393 137.960,237.133 137.700 C 236.999 137.566,236.256 137.500,234.883 137.500 L 232.833 137.500 232.833 136.000 L 232.833 134.500 234.883 134.500 C 237.272 134.500,237.333 134.467,237.333 133.167 C 237.333 131.867,237.272 131.833,234.883 131.833 L 232.833 131.833 232.833 130.333 L 232.833 128.833 234.896 128.833 C 237.325 128.833,237.374 128.804,237.300 127.389 L 237.250 126.417 233.739 126.372 C 231.808 126.347,230.177 126.378,230.114 126.441 M251.280 126.442 C 251.086 126.637,251.156 128.423,251.367 128.633 C 251.492 128.759,252.115 128.833,253.033 128.833 L 254.500 128.833 254.500 134.300 C 254.500 140.507,254.418 140.167,255.917 140.167 C 257.415 140.167,257.333 140.507,257.333 134.300 L 257.333 128.833 258.730 128.833 C 260.417 128.833,260.537 128.734,260.467 127.389 L 260.417 126.417 255.905 126.372 C 253.424 126.348,251.343 126.379,251.280 126.442 M266.706 133.201 L 266.750 140.083 267.806 140.133 C 269.354 140.207,269.333 140.246,269.333 137.146 L 269.333 134.500 272.417 134.500 L 275.500 134.500 275.500 137.070 C 275.500 140.317,275.436 140.167,276.818 140.167 C 278.445 140.167,278.333 140.684,278.333 133.137 L 278.333 126.506 277.951 126.410 C 277.741 126.358,277.123 126.338,276.576 126.366 L 275.583 126.417 275.538 129.125 L 275.492 131.833 272.417 131.833 L 269.342 131.833 269.296 129.125 L 269.250 126.417 267.956 126.368 L 266.663 126.319 266.706 133.201 M285.281 126.441 C 285.090 126.633,285.145 139.482,285.339 139.844 C 285.501 140.147,285.721 140.167,288.889 140.167 C 292.745 140.167,292.667 140.194,292.667 138.833 C 292.667 137.533,292.606 137.500,290.217 137.500 L 288.167 137.500 288.167 136.000 L 288.167 134.500 290.083 134.500 C 291.137 134.500,292.026 134.519,292.058 134.542 C 292.544 134.893,292.934 132.500,292.467 132.033 C 292.333 131.899,291.589 131.833,290.217 131.833 L 288.167 131.833 288.167 130.333 L 288.167 128.833 290.244 128.833 C 292.651 128.833,292.720 128.789,292.634 127.287 L 292.583 126.417 288.989 126.372 C 287.013 126.347,285.344 126.378,285.281 126.441 M306.051 126.607 C 305.993 126.758,306.078 127.227,306.241 127.649 C 306.403 128.071,306.595 128.665,306.669 128.968 C 306.743 129.272,306.948 129.909,307.126 130.385 C 307.304 130.861,307.619 131.813,307.827 132.500 C 308.035 133.188,308.338 134.125,308.501 134.583 C 309.082 136.219,309.529 137.593,309.680 138.205 C 309.765 138.548,309.954 139.129,310.102 139.497 L 310.370 140.167 311.581 140.167 C 312.973 140.167,312.787 140.391,313.593 137.750 C 313.845 136.925,314.219 135.762,314.425 135.167 C 314.631 134.571,315.009 133.417,315.265 132.602 L 315.731 131.121 316.013 131.769 C 316.169 132.125,316.569 133.242,316.902 134.250 C 317.236 135.258,317.819 137.002,318.198 138.125 L 318.888 140.167 320.152 140.164 L 321.417 140.161 321.817 138.872 C 322.349 137.160,323.608 133.206,324.085 131.750 C 324.295 131.108,324.636 130.021,324.842 129.333 C 325.049 128.646,325.318 127.804,325.439 127.463 C 325.801 126.446,325.650 126.313,324.201 126.368 L 322.944 126.417 322.578 127.500 C 322.376 128.096,322.051 129.127,321.856 129.792 C 320.555 134.209,320.009 135.862,320.004 135.397 C 320.002 135.203,319.862 134.678,319.693 134.231 C 319.245 133.041,318.656 131.325,318.497 130.750 C 318.305 130.051,317.694 128.249,317.296 127.208 L 316.961 126.333 315.753 126.333 L 314.546 126.333 314.255 127.292 C 314.095 127.819,313.832 128.662,313.670 129.167 C 313.508 129.671,313.286 130.383,313.176 130.750 C 313.067 131.117,312.921 131.567,312.850 131.750 C 312.460 132.772,311.833 134.803,311.833 135.048 C 311.833 135.860,311.438 135.139,311.076 133.667 C 311.020 133.438,310.836 132.875,310.667 132.417 C 310.499 131.958,310.193 131.021,309.988 130.333 C 309.783 129.646,309.439 128.614,309.224 128.040 C 309.009 127.466,308.833 126.847,308.833 126.665 C 308.833 126.206,306.226 126.153,306.051 126.607 M349.791 126.431 C 349.568 126.655,349.640 139.740,349.867 139.967 C 349.979 140.079,350.515 140.167,351.083 140.167 C 352.511 140.167,352.500 140.190,352.500 137.133 C 352.500 135.685,352.544 134.500,352.598 134.500 C 352.729 134.500,353.321 135.215,353.328 135.382 C 353.331 135.454,353.473 135.717,353.644 135.965 C 353.815 136.213,354.228 136.848,354.561 137.375 C 354.894 137.902,355.436 138.746,355.766 139.250 L 356.366 140.167 357.643 140.167 C 359.406 140.167,359.684 139.805,358.750 138.725 C 358.658 138.619,358.058 137.695,357.417 136.672 C 356.775 135.649,356.086 134.615,355.884 134.375 C 355.498 133.912,355.519 133.667,355.944 133.667 C 356.768 133.667,358.052 131.961,358.257 130.595 C 358.449 129.316,357.445 127.100,356.628 127.000 C 356.561 126.992,356.223 126.860,355.878 126.706 C 355.209 126.408,350.047 126.175,349.791 126.431 M364.951 126.438 C 364.732 126.657,364.812 139.745,365.033 139.967 C 365.175 140.108,366.144 140.167,368.333 140.167 C 371.882 140.167,371.833 140.185,371.833 138.833 C 371.833 137.539,371.763 137.500,369.469 137.500 L 367.504 137.500 367.461 131.958 L 367.417 126.417 366.243 126.368 C 365.597 126.342,365.016 126.373,364.951 126.438 M377.873 133.193 L 377.917 140.083 380.250 140.076 C 386.291 140.057,389.403 137.623,389.403 132.917 C 389.403 128.399,386.979 126.502,381.040 126.373 L 377.830 126.303 377.873 133.193 M338.480 129.032 C 340.316 130.144,341.032 132.799,340.171 135.296 C 339.851 136.221,338.844 137.396,338.302 137.477 C 334.834 137.991,333.333 136.716,333.333 133.254 C 333.333 129.753,336.026 127.545,338.480 129.032 M354.479 129.018 C 356.251 129.635,355.221 131.833,353.159 131.833 L 352.500 131.833 352.500 130.333 L 352.500 128.833 353.225 128.833 C 353.624 128.833,354.188 128.916,354.479 129.018 M384.333 129.295 C 388.531 131.161,386.652 137.382,381.859 137.484 L 380.500 137.513 380.500 133.150 L 380.500 128.788 382.042 128.875 C 383.062 128.932,383.837 129.074,384.333 129.295 M202.880 131.917 C 203.106 132.558,203.346 133.215,203.413 133.375 C 203.523 133.637,203.415 133.667,202.366 133.667 L 201.197 133.667 201.406 132.875 C 201.521 132.440,201.739 131.843,201.891 131.550 C 202.042 131.257,202.167 130.885,202.167 130.725 C 202.167 130.222,202.447 130.691,202.880 131.917 M24.715 134.457 C 25.338 134.489,26.313 134.489,26.882 134.457 C 27.451 134.424,26.942 134.398,25.750 134.398 C 24.558 134.398,24.093 134.425,24.715 134.457 M55.217 134.458 C 56.116 134.488,57.541 134.488,58.384 134.457 C 59.227 134.427,58.492 134.403,56.750 134.403 C 55.008 134.403,54.318 134.428,55.217 134.458 " stroke="none" fill="#4ca4dc" fill-rule="evenodd"></path><path id="path2" d="M70.412 69.167 C 70.412 74.896,70.433 77.240,70.458 74.375 C 70.484 71.510,70.484 66.823,70.458 63.958 C 70.433 61.094,70.412 63.438,70.412 69.167 M130.055 127.583 C 130.055 128.225,130.086 128.467,130.122 128.121 C 130.158 127.775,130.157 127.250,130.120 126.955 C 130.083 126.659,130.054 126.942,130.055 127.583 M59.870 129.288 L 59.833 131.826 56.708 131.875 L 53.583 131.924 56.714 131.962 C 59.151 131.992,59.862 131.952,59.927 131.784 C 59.972 131.665,59.986 130.484,59.958 129.159 L 59.907 126.750 59.870 129.288 M13.250 128.656 L 11.750 128.750 11.747 134.167 L 11.743 139.583 11.791 134.208 L 11.838 128.833 13.242 128.833 C 14.015 128.833,14.693 128.758,14.750 128.667 C 14.807 128.575,14.830 128.514,14.802 128.531 C 14.773 128.549,14.075 128.605,13.250 128.656 M6.792 128.789 C 7.181 128.824,7.819 128.824,8.208 128.789 C 8.598 128.754,8.279 128.725,7.500 128.725 C 6.721 128.725,6.402 128.754,6.792 128.789 M24.625 128.790 C 25.198 128.823,26.135 128.823,26.708 128.790 C 27.281 128.758,26.813 128.731,25.667 128.731 C 24.521 128.731,24.052 128.758,24.625 128.790 M96.958 128.789 C 97.348 128.824,97.985 128.824,98.375 128.789 C 98.765 128.754,98.446 128.725,97.667 128.725 C 96.888 128.725,96.569 128.754,96.958 128.789 M102.458 128.789 C 102.848 128.824,103.485 128.824,103.875 128.789 C 104.265 128.754,103.946 128.725,103.167 128.725 C 102.388 128.725,102.069 128.754,102.458 128.789 M24.715 131.957 C 25.338 131.989,26.313 131.989,26.882 131.957 C 27.451 131.924,26.942 131.898,25.750 131.898 C 24.558 131.898,24.093 131.925,24.715 131.957 M114.958 133.789 C 115.348 133.824,115.985 133.824,116.375 133.789 C 116.765 133.754,116.446 133.725,115.667 133.725 C 114.888 133.725,114.569 133.754,114.958 133.789 M59.901 137.167 C 59.901 138.679,59.926 139.298,59.957 138.542 C 59.988 137.785,59.988 136.548,59.957 135.792 C 59.926 135.035,59.901 135.654,59.901 137.167 M130.066 137.417 C 130.066 138.700,130.092 139.203,130.124 138.534 C 130.156 137.866,130.155 136.816,130.123 136.201 C 130.091 135.586,130.065 136.133,130.066 137.417 M114.542 136.457 C 115.160 136.489,116.173 136.489,116.792 136.457 C 117.410 136.425,116.904 136.399,115.667 136.399 C 114.429 136.399,113.923 136.425,114.542 136.457 M44.720 138.333 C 44.720 138.929,44.750 139.173,44.787 138.875 C 44.824 138.577,44.824 138.090,44.787 137.792 C 44.750 137.494,44.720 137.737,44.720 138.333 M134.479 139.875 C 134.668 140.116,134.944 140.161,136.062 140.133 L 137.417 140.100 136.091 140.042 C 135.362 140.011,134.650 139.894,134.508 139.784 C 134.281 139.608,134.278 139.619,134.479 139.875 M52.333 140.000 L 51.250 140.109 52.282 140.138 C 52.849 140.154,53.360 140.092,53.417 140.000 C 53.473 139.908,53.496 139.846,53.468 139.862 C 53.440 139.878,52.929 139.940,52.333 140.000 M9.795 140.121 C 10.094 140.158,10.544 140.157,10.795 140.119 C 11.045 140.081,10.800 140.051,10.250 140.052 C 9.700 140.053,9.495 140.084,9.795 140.121 M23.050 140.124 C 23.949 140.154,25.374 140.154,26.217 140.124 C 27.060 140.094,26.325 140.069,24.583 140.069 C 22.842 140.070,22.152 140.094,23.050 140.124 M60.625 140.121 C 60.923 140.158,61.410 140.158,61.708 140.121 C 62.006 140.084,61.762 140.053,61.167 140.053 C 60.571 140.053,60.327 140.084,60.625 140.121 M99.958 140.121 C 100.256 140.158,100.744 140.158,101.042 140.121 C 101.340 140.084,101.096 140.053,100.500 140.053 C 99.904 140.053,99.660 140.084,99.958 140.121 M110.375 140.121 C 110.719 140.157,111.281 140.157,111.625 140.121 C 111.969 140.085,111.688 140.056,111.000 140.056 C 110.313 140.056,110.031 140.085,110.375 140.121 M119.788 140.120 C 120.084 140.157,120.609 140.158,120.955 140.122 C 121.300 140.086,121.058 140.055,120.417 140.055 C 119.775 140.054,119.492 140.083,119.788 140.120 M128.295 140.121 C 128.594 140.158,129.044 140.157,129.295 140.119 C 129.545 140.081,129.300 140.051,128.750 140.052 C 128.200 140.053,127.995 140.084,128.295 140.121 " stroke="none" fill="#78d0e8" fill-rule="evenodd"></path><path id="path3" d="" stroke="none" fill="#64b0e8" fill-rule="evenodd"></path><path id="path4" d="M283.302 5.958 C 284.706 5.986,286.956 5.986,288.302 5.958 C 289.648 5.930,288.500 5.907,285.750 5.907 C 283.000 5.907,281.898 5.930,283.302 5.958 M324.969 5.958 C 326.372 5.986,328.622 5.986,329.969 5.958 C 331.315 5.930,330.167 5.907,327.417 5.907 C 324.667 5.907,323.565 5.930,324.969 5.958 " stroke="none" fill="#4cb4e8" fill-rule="evenodd"></path></g></svg>